<?xml version="1.0" standalone="no"?>
<!DOCTYPE svg PUBLIC "-//W3C//DTD SVG 20010904//EN"
 "http://www.w3.org/TR/2001/REC-SVG-20010904/DTD/svg10.dtd">
<svg version="1.0" xmlns="http://www.w3.org/2000/svg"
 width="616.000000pt" height="189.000000pt" viewBox="0 0 616.000000 189.000000"
 preserveAspectRatio="xMidYMid meet">
<metadata>
Created by potrace 1.15, written by Peter Selinger 2001-2017
</metadata>
<g transform="translate(0.000000,189.000000) scale(0.100000,-0.100000)"
fill="#000000" stroke="none">
<path d="M3000 1569 c0 -37 -4 -58 -10 -54 -6 4 -10 -9 -10 -32 0 -58 -32
-263 -42 -263 -4 0 -8 -12 -8 -26 0 -14 -7 -32 -15 -40 -10 -11 -15 -36 -15
-85 0 -55 -3 -69 -15 -69 -8 0 -15 -4 -15 -10 0 -5 7 -10 15 -10 13 0 15 -30
15 -210 l0 -210 -40 0 c-38 0 -40 2 -40 29 0 16 -5 31 -11 33 -5 2 -15 36 -21
76 -7 39 -15 72 -19 72 -4 0 -10 -25 -14 -55 -3 -31 -12 -67 -20 -81 l-12 -25
-7 23 c-6 23 -7 23 -21 4 -14 -19 -15 -18 -16 10 0 29 -17 80 -18 57 -1 -7
-12 -13 -25 -13 -13 0 -27 6 -29 13 -3 6 -6 -4 -6 -23 -2 -44 -17 -71 -30 -51
-7 11 -10 11 -15 0 -3 -8 -8 -10 -11 -4 -3 6 -72 9 -182 8 -114 -1 -186 2
-200 9 -20 10 -27 7 -50 -18 l-28 -29 -3 28 c-2 15 -8 27 -13 27 -5 0 -10 -12
-10 -27 -2 -24 -2 -25 -6 -5 -2 12 -8 22 -12 22 -5 0 -11 38 -13 84 -4 54 -11
93 -22 107 -9 13 -16 33 -16 44 0 15 -2 17 -9 6 -7 -11 -9 -11 -14 0 -3 9 -6
6 -6 -6 -1 -11 -9 -32 -18 -45 -14 -19 -18 -53 -21 -154 -4 -106 -8 -135 -24
-163 -24 -39 -31 -40 -61 -11 -49 50 -87 116 -87 153 0 32 -3 37 -20 32 -18
-5 -20 0 -20 54 0 43 -3 57 -13 54 -32 -13 -83 229 -57 274 5 9 3 20 -5 28
-18 17 -25 16 -25 -2 0 -8 -5 -15 -11 -15 -8 0 -8 -4 0 -13 27 -33 -24 -285
-56 -272 -10 3 -13 -12 -13 -58 0 -34 -4 -57 -8 -50 -13 21 -30 -1 -34 -41 -2
-23 -9 -41 -17 -44 -10 -3 -12 0 -8 11 9 23 -10 31 -21 10 -8 -14 -12 -8 -17
30 -4 26 -10 47 -14 47 -15 0 -31 -105 -31 -204 l0 -102 -36 -32 c-39 -35 -83
-42 -104 -17 -7 8 -18 15 -25 15 -17 0 -45 -33 -45 -54 0 -22 -45 -39 -70 -26
-29 16 -58 12 -73 -10 -8 -12 -18 -20 -23 -19 -20 3 -32 -2 -59 -25 -15 -13
-34 -22 -41 -19 -7 2 -24 -3 -38 -12 -16 -11 -39 -16 -61 -13 -30 3 -36 0 -46
-24 -6 -16 -14 -26 -17 -23 -3 3 -12 -1 -21 -9 -9 -7 -34 -16 -55 -19 -28 -5
-49 -17 -77 -47 l-37 -40 -146 0 c-91 0 -146 -4 -146 -10 0 -7 990 -10 2950
-10 l2950 0 0 215 c0 118 -2 215 -5 215 -3 0 -14 -14 -25 -32 -21 -35 -53 -45
-87 -27 -18 10 -29 10 -50 0 -19 -9 -29 -9 -31 -2 -2 6 -9 11 -16 11 -16 0
-56 -42 -56 -58 0 -7 -7 -12 -15 -12 -12 0 -15 16 -15 83 -1 52 -6 91 -15 107
-17 29 -19 76 -5 85 6 4 4 12 -5 21 -8 9 -15 24 -15 33 0 10 -7 24 -15 31 -8
7 -15 19 -15 26 0 8 -9 14 -20 14 -11 0 -20 -7 -20 -15 0 -7 -6 -18 -14 -22
-16 -10 -28 -55 -27 -101 1 -38 -23 -72 -33 -47 -9 25 -26 17 -32 -15 -4 -17
-13 -30 -21 -30 -22 0 -53 19 -53 34 0 9 -20 11 -83 8 l-84 -4 -25 77 c-14 42
-28 73 -30 68 -3 -4 -13 -36 -23 -70 -14 -50 -22 -63 -38 -63 -13 0 -17 -5
-13 -15 4 -10 -1 -15 -15 -15 -19 0 -20 7 -20 193 1 132 -4 212 -14 257 -8 36
-15 79 -15 95 -1 26 -3 27 -10 10 -5 -11 -9 -33 -9 -49 -1 -16 -3 -27 -6 -25
-8 9 -34 146 -40 211 -9 101 -30 211 -42 215 -6 2 -13 -15 -16 -39 -30 -224
-38 -281 -49 -333 l-12 -60 -11 50 -11 50 -8 -64 c-5 -35 -13 -78 -18 -95 -5
-17 -8 -115 -8 -218 l1 -188 -46 0 c-28 0 -47 5 -49 13 -15 57 -28 114 -29
125 -2 53 -41 -54 -46 -125 -1 -9 -19 -13 -55 -13 l-54 0 -7 50 c-7 48 -18 63
-28 38 -3 -7 -8 2 -12 19 -4 18 -12 30 -17 27 -5 -3 -12 3 -15 15 -7 27 -30
27 -38 1 -4 -11 -10 -18 -15 -15 -8 5 -19 -43 -23 -105 l-2 -35 -53 0 c-58 0
-55 -3 -66 80 -3 22 -8 67 -10 100 -3 33 -9 74 -14 90 -9 30 -9 30 -20 -20 -6
-27 -14 -92 -18 -143 -5 -81 -8 -92 -25 -92 -10 0 -19 -7 -19 -15 0 -8 -4 -15
-10 -15 -5 0 -11 28 -12 63 -3 101 -5 119 -12 172 -11 80 -22 84 -34 13 -13
-79 -13 -77 -18 -290 -4 -150 -7 -176 -19 -171 -8 3 -15 16 -15 29 0 13 -9 28
-19 34 -11 5 -23 19 -26 30 -5 17 -14 20 -48 18 -25 -1 -42 3 -45 10 -10 32
-62 2 -76 -45 -7 -23 -22 -26 -42 -8 -17 16 -26 94 -14 130 9 27 6 41 -15 89
-14 31 -25 64 -25 74 0 14 -2 15 -10 2 -7 -12 -11 -10 -18 10 l-9 24 -7 -25
c-4 -14 -9 -19 -13 -11 -8 21 -20 13 -26 -15 -4 -25 -37 -121 -45 -133 -2 -2
-7 2 -12 10 -12 20 -56 -5 -64 -36 -8 -29 -45 -40 -87 -25 -40 14 -35 15 -59
-11 -11 -12 -23 -19 -26 -15 -4 3 -16 1 -28 -5 -11 -7 -36 -11 -53 -9 -21 2
-33 -2 -33 -10 0 -7 -9 -2 -20 11 -17 20 -25 22 -47 14 -16 -5 -29 -19 -33
-33 -8 -33 -53 -45 -91 -25 l-29 15 0 108 c0 98 -2 109 -19 114 -14 3 -21 18
-26 56 -4 28 -11 51 -16 51 -5 0 -9 63 -9 140 0 133 1 140 20 140 11 0 20 5
20 10 0 6 -9 10 -20 10 -18 0 -20 7 -20 75 0 52 -4 76 -14 82 -14 9 -16 15
-44 178 -37 212 -36 235 9 237 13 1 30 6 37 11 8 6 12 6 12 -2 0 -6 7 -11 15
-11 10 0 15 10 15 30 0 29 -24 44 -32 19 -2 -7 -12 -7 -31 0 -59 23 -67 17
-67 -50z"/>
</g>
</svg>
